<svg width="430" height="231" viewBox="0 0 430 231" fill="none" xmlns="http://www.w3.org/2000/svg">
<path d="M129.833 115.5H122.5V112.556H129.833V115.5Z" fill="#E40000"/>
<path d="M136.417 115.5H129.833V112.556H136.417V115.5Z" fill="#E40000"/>
<path d="M115.908 120.354C115.725 120.219 115.5 120.152 115.225 120.152L115.117 122.09C115.217 122.09 115.3 122.09 115.367 122.09C115.742 122.09 116.142 122.225 116.425 122.567C116.717 122.908 116.867 123.367 116.867 123.942C116.867 124.8 116.592 125.475 116.025 125.967C115.467 126.458 114.733 126.704 113.825 126.704C113.25 126.704 112.75 126.569 112.325 126.3C111.9 126.025 111.608 125.633 111.45 125.125L109.617 125.75C109.917 126.55 110.375 127.183 110.992 127.65C111.617 128.117 112.325 128.454 113.117 128.65C113.908 128.846 114.65 128.846 115.342 128.65C116.033 128.454 116.658 128.117 117.217 127.642C117.775 127.167 118.217 126.542 118.542 125.767C118.875 124.983 119.042 124.125 119.042 123.192C119.042 122.258 118.85 121.433 118.467 120.717C118.092 120 117.583 119.458 116.942 119.092C116.3 118.725 115.492 118.492 114.517 118.392L113.183 118.258C112.592 118.208 112.05 118.067 111.558 117.833C111.075 117.592 110.683 117.25 110.383 116.808C110.083 116.367 109.933 115.85 109.933 115.258C109.933 114.633 110.1 114.117 110.433 113.708C110.775 113.292 111.233 113 111.808 112.817C112.383 112.633 113.008 112.542 113.683 112.542C114.442 112.542 115.05 112.692 115.508 112.992C115.975 113.292 116.292 113.683 116.458 114.167L118.283 113.542C117.975 112.75 117.475 112.133 116.783 111.692C116.1 111.242 115.275 110.954 114.308 110.825C113.758 110.742 113.208 110.7 112.658 110.7C111.958 110.7 111.325 110.817 110.758 111.05C110.2 111.275 109.717 111.608 109.308 112.05C108.908 112.483 108.617 113.025 108.433 113.675C108.25 114.317 108.158 115.025 108.158 115.8C108.158 116.742 108.35 117.558 108.742 118.25C109.133 118.933 109.65 119.467 110.292 119.85C110.942 120.225 111.758 120.483 112.742 120.625L114.075 120.758C115.017 120.858 115.8 121.083 116.425 121.433C117.05 121.775 117.542 122.25 117.9 122.858C118.258 123.467 118.433 124.167 118.433 124.958C118.433 125.758 118.258 126.442 117.908 127.008C117.558 127.575 117.075 128.008 116.458 128.308C115.85 128.6 115.133 128.754 114.308 128.767C113.683 128.775 113.042 128.683 112.383 128.5C111.725 128.308 111.133 128.008 110.608 127.6C110.083 127.192 109.692 126.658 109.433 126L115.908 120.354Z" fill="#E40000"/>
<path d="M188.769 57.0625C188.769 54.9125 188.277 52.9333 187.294 51.125C186.31 49.3083 184.927 47.7875 183.144 46.5625C181.36 45.3292 179.286 44.4375 176.921 43.8875C174.556 43.3375 172.036 43.0625 169.359 43.0625C166.681 43.0625 164.162 43.3375 161.797 43.8875C159.431 44.4375 157.357 45.3292 155.574 46.5625C153.791 47.7875 152.408 49.3083 151.424 51.125C150.441 52.9333 149.949 54.9125 149.949 57.0625C149.949 59.0375 150.374 60.9125 151.224 62.6875C152.083 64.4542 153.283 66.0125 154.824 67.3625C156.374 68.7042 158.216 69.7625 160.35 70.5375C162.491 71.3042 164.833 71.6875 167.374 71.6875C169.916 71.6875 172.258 71.3042 174.4 70.5375C176.541 69.7625 178.383 68.7042 179.933 67.3625C181.474 66.0125 182.674 64.4542 183.533 62.6875C184.391 60.9125 184.821 59.0375 184.824 57.0625H188.769ZM167.36 45.6875C170.193 45.6875 172.768 46.1208 175.086 46.9875C177.403 47.8458 179.403 49.0875 181.086 50.7125C182.768 52.3292 184.033 54.2625 184.883 56.5125C185.733 58.7542 186.158 61.2125 186.158 63.8875C186.158 66.5625 185.733 69.0208 184.883 71.2625C184.033 73.5042 182.768 75.4375 181.086 77.0625C179.403 78.6792 177.403 79.9208 175.086 80.7875C172.768 81.6458 170.193 82.0875 167.36 82.0625C164.527 82.0625 161.952 81.6292 159.635 80.7625C157.318 79.9042 155.318 78.6625 153.635 77.0375C151.952 75.4208 150.688 73.4875 149.838 71.2375C148.988 68.9958 148.563 66.5375 148.563 63.8625C148.563 61.1875 148.988 58.7292 149.838 56.4875C150.688 54.2375 151.952 52.3042 153.635 50.6875C155.318 49.0708 157.318 47.8292 159.635 46.9625C161.952 46.1042 164.527 45.6625 167.36 45.6875V45.6875Z" fill="#E40000"/>
<path d="M166.681 48.3375L166.856 50.325L159.221 53.6625L158.079 52.05L166.681 48.3375Z" fill="#E40000"/>
<path d="M169.581 48.3375L178.183 52.05L177.041 53.6625L169.406 50.325L169.581 48.3375Z" fill="#E40000"/>
<path d="M167.921 52.6125V79.5125H168.271V52.6125H167.921Z" fill="#E40000"/>
<path d="M168.271 52.6125V79.5125H168.621V52.6125H168.271Z" fill="#E40000"/>
<path d="M167.385 64.9125C167.385 64.9125 162.779 66.9625 160.013 68.325L153.603 62.0625L162.053 58.05L167.385 64.9125Z" fill="#E40000"/>
<path d="M168.991 64.9125C168.991 64.9125 173.597 66.9625 176.363 68.325L182.774 62.0625L174.324 58.05L168.991 64.9125Z" fill="#E40000"/>
<path d="M168.271 78.075C168.271 78.075 163.665 77.025 160.899 75.875L158.113 79.525L168.271 82.075V78.075Z" fill="#E40000"/>
<path d="M168.271 78.075C168.271 78.075 172.877 77.025 175.644 75.875L178.429 79.525L168.271 82.075V78.075Z" fill="#E40000"/>
<path d="M168.271 106.637C177.303 106.637 184.696 99.245 184.696 90.2125C184.696 81.18 177.303 73.7875 168.271 73.7875C159.238 73.7875 151.846 81.18 151.846 90.2125C151.846 99.245 159.238 106.637 168.271 106.637Z" fill="#E40000"/>
<path d="M168.271 104.387C176.013 104.387 182.288 98.1125 182.288 90.3708C182.288 82.6292 176.013 76.3542 168.271 76.3542C160.529 76.3542 154.254 82.6292 154.254 90.3708C154.254 98.1125 160.529 104.387 168.271 104.387Z" fill="#E40000"/>
<path d="M168.271 101.887C174.529 101.887 179.629 96.7875 179.629 90.5292C179.629 84.2708 174.529 79.1708 168.271 79.1708C162.013 79.1708 156.913 84.2708 156.913 90.5292C156.913 96.7875 162.013 101.887 168.271 101.887Z" fill="white"/>
<path d="M174.041 85.5212L172.933 87.0587L168.326 89.6587L163.721 87.0587L162.613 85.5212L168.326 82.0295L174.041 85.5212Z" fill="#E40000"/>
<path d="M161.421 88.6671L168.326 92.5129L175.231 88.6671V94.8879L168.326 98.7337L161.421 94.8879V88.6671Z" fill="#E40000"/>
<path d="M168.326 109.159C172.583 109.159 176.044 105.706 176.044 101.44C176.044 97.175 172.583 93.7212 168.326 93.7212C164.07 93.7212 160.609 97.175 160.609 101.44C160.609 105.706 164.07 109.159 168.326 109.159Z" fill="#E40000"/>
<path d="M141.042 110.7L141.042 108.617L146.758 108.617L146.758 128.7H141.042L141.042 123.008L129.833 128.7L129.833 118.433L141.042 112.558L141.042 110.7ZM136.417 122.975L129.833 126.542L129.833 121.258L136.417 117.833L136.417 122.975Z" fill="#E40000"/>
<path d="M136.417 115.5H129.833V112.556H136.417V115.5Z" fill="#E40000"/>
<path d="M149.947 110.7L149.947 128.7H144.13L144.13 110.7L149.947 110.7Z" fill="#E40000"/>
<path d="M168.271 106.637C177.303 106.637 184.696 99.245 184.696 90.2125C184.696 81.18 177.303 73.7875 168.271 73.7875C159.238 73.7875 151.846 81.18 151.846 90.2125C151.846 99.245 159.238 106.637 168.271 106.637Z" fill="#E40000"/>
<path d="M168.271 104.387C176.013 104.387 182.288 98.1125 182.288 90.3708C182.288 82.6292 176.013 76.3542 168.271 76.3542C160.529 76.3542 154.254 82.6292 154.254 90.3708C154.254 98.1125 160.529 104.387 168.271 104.387Z" fill="#E40000"/>
<path d="M168.271 101.887C174.529 101.887 179.629 96.7875 179.629 90.5292C179.629 84.2708 174.529 79.1708 168.271 79.1708C162.013 79.1708 156.913 84.2708 156.913 90.5292C156.913 96.7875 162.013 101.887 168.271 101.887Z" fill="white"/>
<path d="M174.041 85.5212L172.933 87.0587L168.326 89.6587L163.721 87.0587L162.613 85.5212L168.326 82.0295L174.041 85.5212Z" fill="#E40000"/>
<path d="M161.421 88.6671L168.326 92.5129L175.231 88.6671V94.8879L168.326 98.7337L161.421 94.8879V88.6671Z" fill="#E40000"/>
<path d="M168.326 109.159C172.583 109.159 176.044 105.706 176.044 101.44C176.044 97.175 172.583 93.7212 168.326 93.7212C164.07 93.7212 160.609 97.175 160.609 101.44C160.609 105.706 164.07 109.159 168.326 109.159Z" fill="#E40000"/>
<path d="M149.947 110.7L149.947 128.7H144.13L144.13 110.7L149.947 110.7Z" fill="#E40000"/>
<path d="M123.635 128.7L123.635 110.7L129.452 110.7L129.452 126.042L140.452 126.042L140.452 128.7L123.635 128.7Z" fill="#E40000"/>
<path d="M152.013 110.7L152.013 128.7H146.196L146.196 110.7L152.013 110.7Z" fill="#E40000"/>
<path d="M152.013 110.7L152.013 128.7H146.196L146.196 110.7L152.013 110.7Z" fill="#E40000"/>
<path d="M167.373 118.433C167.373 118.433 162.766 120.483 159.999 121.846L153.589 115.583L162.039 111.571L167.373 118.433Z" fill="#E40000"/>
<path d="M168.979 118.433C168.979 118.433 173.586 120.483 176.352 121.846L182.762 115.583L174.312 111.571L168.979 118.433Z" fill="#E40000"/>
<path d="M168.268 131.596C177.301 131.596 184.693 124.203 184.693 115.171C184.693 106.138 177.301 98.7458 168.268 98.7458C159.236 98.7458 151.843 106.138 151.843 115.171C151.843 124.203 159.236 131.596 168.268 131.596Z" fill="#E40000"/>
<path d="M168.268 129.346C176.011 129.346 182.286 123.071 182.286 115.329C182.286 107.587 176.011 101.313 168.268 101.313C160.526 101.313 154.251 107.587 154.251 115.329C154.251 123.071 160.526 129.346 168.268 129.346Z" fill="white"/>
<path d="M188.758 112.558C188.758 112.15 188.667 111.758 188.483 111.383C188.308 111 188.058 110.675 187.733 110.408C187.408 110.133 187.017 110.025 186.558 110.083C186.108 110.142 185.717 110.358 185.383 110.733L176.783 119.508L174.508 117.292C174.917 116.892 175.158 116.45 175.233 115.967C175.317 115.475 175.242 115.008 175.008 114.567C174.783 114.117 174.45 113.758 173.992 113.5C173.542 113.233 173.05 113.1 172.517 113.1C171.742 113.1 171.058 113.317 170.467 113.75C169.875 114.175 169.458 114.733 169.208 115.425C168.958 116.108 168.875 116.85 168.958 117.65L171.333 120.083L162.733 128.7H159.208V125.758H155.683V110.7H159.208V118.808L167.375 110.7H172.517C173.492 110.7 174.35 110.9 175.092 111.3C175.833 111.692 176.433 112.242 176.892 112.95C177.35 113.65 177.583 114.45 177.583 115.35C177.583 115.917 177.475 116.483 177.258 117.05C177.05 117.608 176.733 118.117 176.308 118.575L178.583 120.792L187.183 112.017C187.958 111.233 188.425 110.458 188.583 109.692L188.758 112.558Z" fill="#E40000"/>
<path d="M190.542 43.125C190.167 43.025 189.758 42.975 189.317 42.975C188.592 42.975 188.025 43.2 187.617 43.65C187.217 44.0917 187.017 44.625 187.017 45.25V46.625C187.017 47.3333 187.242 47.8833 187.692 48.275C188.15 48.6583 188.733 48.85 189.442 48.85C189.925 48.85 190.35 48.775 190.717 48.625L190.542 43.125Z" fill="#E40000"/>
<path d="M228.094 200.725H202.844V179.912L215.469 179.796V198.225H228.094V200.725Z" fill="#E40000"/>
<path d="M241.281 190.537C241.281 188.087 240.694 185.962 239.519 184.162C238.353 182.362 236.753 180.962 234.719 179.962C232.684 178.962 230.344 178.462 227.694 178.462C223.753 178.462 220.469 179.312 217.844 180.996C215.219 182.68 213.231 185.03 211.881 188.046C210.531 191.062 209.856 194.596 209.856 198.646C209.856 202.696 210.531 206.23 211.881 209.246C213.231 212.262 215.219 214.612 217.844 216.296C220.469 217.98 223.753 218.812 227.694 218.812C230.344 218.812 232.684 218.312 234.719 217.312C236.753 216.312 238.353 214.912 239.519 213.112C240.694 211.312 241.281 209.187 241.281 206.737V190.537ZM238.531 206.412C238.531 208.487 238.019 210.275 236.994 211.775C235.969 213.262 234.519 214.375 232.644 215.112C230.769 215.837 228.581 216.196 226.081 216.196C223.581 216.196 221.394 215.837 219.519 215.112C217.644 214.375 216.194 213.262 215.169 211.775C214.144 210.275 213.631 208.487 213.631 206.412V190.862C213.631 188.787 214.144 187 215.169 185.512C216.194 184.012 217.644 182.9 219.519 182.162C221.394 181.425 223.581 181.062 226.081 181.062C228.581 181.062 230.769 181.425 232.644 182.162C234.519 182.9 235.969 184.012 236.994 185.512C238.019 187 238.531 188.787 238.531 190.862V206.412Z" fill="#E40000"/>
<path d="M268.044 179.912L258.919 193.362V179.912H256.169V218.412H258.919V204.962L268.044 191.512V218.412H270.794V179.912H268.044Z" fill="#E40000"/>
<path d="M296.819 182.712C296.819 181.362 296.531 180.25 295.956 179.375C295.381 178.5 294.606 177.837 293.631 177.387C292.656 176.937 291.569 176.712 290.369 176.712C289.169 176.712 288.081 176.937 287.106 177.387C286.131 177.837 285.356 178.5 284.781 179.375C284.206 180.25 283.919 181.362 283.919 182.712C283.919 184.062 284.206 185.175 284.781 186.05C285.356 186.925 286.131 187.587 287.106 188.037C288.081 188.487 289.169 188.712 290.369 188.712C291.569 188.712 292.656 188.487 293.631 188.037C294.606 187.587 295.381 186.925 295.956 186.05C296.531 185.175 296.819 184.062 296.819 182.712ZM294.069 182.712C294.069 183.562 293.894 184.262 293.544 184.812C293.194 185.362 292.731 185.762 292.156 186.012C291.581 186.262 290.969 186.387 290.319 186.387C289.669 186.387 289.056 186.262 288.481 186.012C287.906 185.762 287.444 185.362 287.094 184.812C286.744 184.262 286.569 183.562 286.569 182.712C286.569 181.862 286.744 181.162 287.094 180.612C287.444 180.062 287.906 179.662 288.481 179.412C289.056 179.162 289.669 179.037 290.319 179.037C290.969 179.037 291.581 179.162 292.156 179.412C292.731 179.662 293.194 180.062 293.544 180.612C293.894 181.162 294.069 181.862 294.069 182.712ZM290.369 188.937C288.619 188.937 287.156 189.325 285.981 190.1C284.806 190.875 283.894 191.912 283.244 193.212L285.869 194.212C286.169 193.537 286.631 192.987 287.256 192.562C287.881 192.137 288.606 191.862 289.431 191.737V218.412H291.306V191.737C292.131 191.862 292.856 192.137 293.481 192.562C294.106 192.987 294.569 193.537 294.869 194.212L297.494 193.212C296.844 191.912 295.931 190.875 294.756 190.1C293.581 189.325 292.119 188.937 290.369 188.937Z" fill="#E40000"/>
<path d="M312.381 177.112L304.531 192.512V218.412H307.281V192.512L315.131 177.112H312.381Z" fill="#E40000"/>
<path d="M331.419 177.112L323.569 192.512V218.412H326.319V192.512L334.169 177.112H331.419Z" fill="#E40000"/>
<path d="M351.444 179.912H339.069V182.412H351.444V179.912Z" fill="#E40000"/>
<path d="M347.881 179.912V218.412H345.131V179.912H347.881Z" fill="#E40000"/>
<path d="M351.444 215.912H339.069V218.412H351.444V215.912Z" fill="#E40000"/>
<path d="M375.919 182.712C375.919 181.362 375.631 180.25 375.056 179.375C374.481 178.5 373.706 177.837 372.731 177.387C371.756 176.937 370.669 176.712 369.469 176.712C368.269 176.712 367.181 176.937 366.206 177.387C365.231 177.837 364.456 178.5 363.881 179.375C363.306 180.25 363.019 181.362 363.019 182.712C363.019 184.062 363.306 185.175 363.881 186.05C364.456 186.925 365.231 187.587 366.206 188.037C367.181 188.487 368.269 188.712 369.469 188.712C370.669 188.712 371.756 188.487 372.731 188.037C373.706 187.587 374.481 186.925 375.056 186.05C375.631 185.175 375.919 184.062 375.919 182.712ZM373.169 182.712C373.169 183.562 372.994 184.262 372.644 184.812C372.294 185.362 371.831 185.762 371.256 186.012C370.681 186.262 370.069 186.387 369.419 186.387C368.769 186.387 368.156 186.262 367.581 186.012C367.006 185.762 366.544 185.362 366.194 184.812C365.844 184.262 365.669 183.562 365.669 182.712C365.669 181.862 365.844 181.162 366.194 180.612C366.544 180.062 367.006 179.662 367.581 179.412C368.156 179.162 368.769 179.037 369.419 179.037C370.069 179.037 370.681 179.162 371.256 179.412C371.831 179.662 372.294 180.062 372.644 180.612C372.994 181.162 373.169 181.862 373.169 182.712ZM369.469 188.937C367.719 188.937 366.256 189.325 365.081 190.1C363.906 190.875 362.994 191.912 362.344 193.212L364.969 194.212C365.269 193.537 365.731 192.987 366.356 192.562C366.981 192.137 367.706 191.862 368.531 191.737V218.412H370.406V191.737C371.231 191.862 371.956 192.137 372.581 192.562C373.206 192.987 373.669 193.537 373.969 194.212L376.594 193.212C375.944 191.912 375.031 190.875 373.856 190.1C372.681 189.325 371.219 188.937 369.469 188.937Z" fill="#E40000"/>
<path d="M400.956 190.537C400.956 188.087 400.369 185.962 399.194 184.162C398.028 182.362 396.428 180.962 394.394 179.962C392.359 178.962 390.019 178.462 387.369 178.462C383.428 178.462 380.144 179.312 377.519 180.996C374.894 182.68 372.906 185.03 371.556 188.046C370.206 191.062 369.531 194.596 369.531 198.646C369.531 202.696 370.206 206.23 371.556 209.246C372.906 212.262 374.894 214.612 377.519 216.296C380.144 217.98 383.428 218.812 387.369 218.812C390.019 218.812 392.359 218.312 394.394 217.312C396.428 216.312 398.028 214.912 399.194 213.112C400.369 211.312 400.956 209.187 400.956 206.737V190.537ZM398.206 206.412C398.206 208.487 397.694 210.275 396.669 211.775C395.644 213.262 394.194 214.375 392.319 215.112C390.444 215.837 388.256 216.196 385.756 216.196C383.256 216.196 381.069 215.837 379.194 215.112C377.319 214.375 375.869 213.262 374.844 211.775C373.819 210.275 373.306 208.487 373.306 206.412V190.862C373.306 188.787 373.819 187 374.844 185.512C375.869 184.012 377.319 182.9 379.194 182.162C381.069 181.425 383.256 181.062 385.756 181.062C388.256 181.062 390.444 181.425 392.319 182.162C394.194 182.9 395.644 184.012 396.669 185.512C397.694 187 398.206 188.787 398.206 190.862V206.412Z" fill="#E40000"/>
<path d="M428.181 215.912H415.806V218.412H428.181V215.912Z" fill="#E40000"/>
<path d="M424.619 215.912V179.912H421.869V215.912H424.619Z" fill="#E40000"/>
<path d="M428.181 179.912H403.431V182.412H428.181V179.912Z" fill="#E40000"/>
<path d="M415.806 198.212H403.431V200.712H415.806V198.212Z" fill="#E40000"/>
<path d="M228.094 200.725H202.844V179.912L215.469 179.796V198.225H228.094V200.725Z" fill="#E40000"/>
<path d="M268.044 179.912L258.919 193.362V179.912H256.169V218.412H258.919V204.962L268.044 191.512V218.412H270.794V179.912H268.044Z" fill="#E40000"/>
<path d="M312.381 177.112L304.531 192.512V218.412H307.281V192.512L315.131 177.112H312.381Z" fill="#E40000"/>
<path d="M331.419 177.112L323.569 192.512V218.412H326.319V192.512L334.169 177.112H331.419Z" fill="#E40000"/>
<path d="M351.444 179.912H339.069V182.412H351.444V179.912Z" fill="#E40000"/>
<path d="M347.881 179.912V218.412H345.131V179.912H347.881Z" fill="#E40000"/>
<path d="M351.444 215.912H339.069V218.412H351.444V215.912Z" fill="#E40000"/>
<path d="M428.181 215.912H415.806V218.412H428.181V215.912Z" fill="#E40000"/>
<path d="M424.619 215.912V179.912H421.869V215.912H424.619Z" fill="#E40000"/>
<path d="M428.181 179.912H403.431V182.412H428.181V179.912Z" fill="#E40000"/>
<path d="M415.806 198.212H403.431V200.712H415.806V198.212Z" fill="#E40000"/>
<path d="M96.0693 226.7C95.8868 226.565 95.6618 226.498 95.3868 226.498L95.2784 228.436C95.3784 228.436 95.4618 228.436 95.5284 228.436C95.9034 228.436 96.3034 228.571 96.5868 228.913C96.8784 229.254 97.0284 229.713 97.0284 230.288C97.0284 231.146 96.7534 231.821 96.1868 232.313C95.6284 232.804 94.8943 233.05 94.0034 233.05C93.4284 233.05 92.9284 232.915 92.5034 232.646C92.0784 232.371 91.7868 231.979 91.6284 231.471L89.7943 232.096C90.0943 232.896 90.5534 233.529 91.1693 233.996C91.7943 234.463 92.5034 234.8 93.2943 234.996C94.0868 235.192 94.8284 235.192 95.5193 234.996C96.2118 234.8 96.8368 234.463 97.3943 233.988C97.9534 233.513 98.3943 232.888 98.7193 232.113C99.0534 231.329 99.2193 230.471 99.2193 229.538C99.2193 228.604 99.0284 227.779 98.6443 227.063C98.2693 226.346 97.7618 225.804 97.1193 225.438C96.4784 225.071 95.6784 224.838 94.6943 224.738L93.3618 224.604C92.7693 224.554 92.2284 224.413 91.7368 224.179C91.2534 223.938 90.8618 223.596 90.5618 223.154C90.2618 222.713 90.1118 222.196 90.1118 221.604C90.1118 220.979 90.2784 220.463 90.6118 220.054C90.9534 219.638 91.4118 219.346 91.9868 219.163C92.5618 218.979 93.1868 218.888 93.8618 218.888C94.6193 218.888 95.2284 219.038 95.6868 219.338C96.1534 219.638 96.4693 220.029 96.6368 220.513L98.4618 219.888C98.1534 219.1 97.6534 218.479 96.9618 218.038C96.2784 217.588 95.4534 217.3 94.4868 217.171C93.9368 217.088 93.3868 217.046 92.8368 217.046C92.1368 217.046 91.5034 217.163 90.9368 217.396C90.3784 217.621 89.8943 217.954 89.4868 218.396C89.0868 218.829 88.7943 219.371 88.6118 220.021C88.4284 220.663 88.3368 221.371 88.3368 222.146C88.3368 223.088 88.5284 223.904 88.9193 224.596C89.3118 225.279 89.8284 225.813 90.4693 226.196C91.1193 226.571 91.9368 226.829 92.9193 226.971L94.2534 227.104C95.1943 227.204 95.9784 227.429 96.6034 227.779C97.2284 228.121 97.7193 228.596 98.0784 229.204C98.4368 229.813 98.6118 230.513 98.6118 231.304C98.6118 232.104 98.4368 232.788 98.0868 233.354C97.7368 233.921 97.2534 234.354 96.6368 234.654C96.0284 234.946 95.3118 235.101 94.4868 235.113C93.8618 235.121 93.2193 235.029 92.5618 234.846C91.9034 234.654 91.3118 234.354 90.7868 233.946C90.2618 233.538 89.8693 233.004 89.6118 232.346L96.0693 226.7Z" fill="#E40000"/>
<path d="M129.833 221.788L129.833 219.704L135.549 219.704L135.549 239.788H129.833L129.833 224.096L118.625 229.788L118.625 219.521L129.833 213.646L129.833 221.788ZM125.208 234.063L118.625 237.629L118.625 222.346L125.208 218.921L125.208 234.063Z" fill="#E40000"/>
<path d="M141.042 221.788L141.042 239.788H135.225L135.225 221.788L141.042 221.788Z" fill="#E40000"/>
<path d="M157.069 221.788H144.694V224.288H157.069V221.788Z" fill="#E40000"/>
<path d="M154.319 221.788V239.788H151.569V221.788H154.319Z" fill="#E40000"/>
<path d="M157.069 237.288H144.694V239.788H157.069V237.288Z" fill="#E40000"/>
<path d="M176.694 221.788L167.569 235.238V221.788H164.819V239.788H167.569V226.338L176.694 209.888V239.788H179.444V221.788H176.694Z" fill="#E40000"/>
<path d="M205.469 224.588C205.469 223.238 205.181 222.125 204.606 221.25C204.031 220.375 203.256 219.713 202.281 219.263C201.306 218.813 200.219 218.588 199.019 218.588C197.819 218.588 196.731 218.813 195.756 219.263C194.781 219.713 194.006 220.375 193.431 221.25C192.856 222.125 192.569 223.238 192.569 224.588C192.569 225.938 192.856 227.05 193.431 227.925C194.006 228.8 194.781 229.463 195.756 229.913C196.731 230.363 197.819 230.588 199.019 230.588C200.219 230.588 201.306 230.363 202.281 229.913C203.256 229.463 204.031 228.8 204.606 227.925C205.181 227.05 205.469 225.938 205.469 224.588ZM202.719 224.588C202.719 225.438 202.544 226.138 202.194 226.688C201.844 227.238 201.381 227.638 200.806 227.888C200.231 228.138 199.619 228.263 198.969 228.263C198.319 228.263 197.706 228.138 197.131 227.888C196.556 227.638 196.094 227.238 195.744 226.688C195.394 226.138 195.219 225.438 195.219 224.588C195.219 223.738 195.394 223.038 195.744 222.488C196.094 221.938 196.556 221.538 197.131 221.288C197.706 221.038 198.319 220.913 198.969 220.913C199.619 220.913 200.231 221.038 200.806 221.288C201.381 221.538 201.844 221.938 202.194 222.488C202.544 223.038 202.719 223.738 202.719 224.588ZM199.019 230.813C197.269 230.813 195.806 231.2 194.631 231.975C193.456 232.75 192.544 233.788 191.894 235.088L194.519 236.088C194.819 235.413 195.281 234.863 195.906 234.438C196.531 234.013 197.256 233.738 198.081 233.613V239.788H199.956V233.613C200.781 233.738 201.506 234.013 202.131 234.438C202.756 234.863 203.219 235.413 203.519 236.088L206.144 235.088C205.494 233.788 204.581 232.75 203.406 231.975C202.231 231.2 200.769 230.813 199.019 230.813Z" fill="#E40000"/>
</svg>
